<svg width="71" height="29" viewBox="0 0 71 29" fill="none" xmlns="http://www.w3.org/2000/svg">
<g clip-path="url(#clip0)">
<path d="M19.5125 14.0984C18.1276 18.3121 14.7406 20.6866 10.1606 20.6866C4.46453 20.6866 0 16.1672 0 10.3819C0 4.6741 4.46453 0.000279685 9.96813 0.000279685C15.0865 0.000279685 20.0132 4.21458 19.9747 11.2246H3.30997C3.73313 15.3242 6.88912 17.7376 10.1606 17.7376C12.9701 17.7376 14.971 16.3968 16.0491 14.0984H19.5125ZM16.3571 8.31336C15.5487 5.09503 12.8547 2.95012 9.96813 2.95012C7.23586 2.95012 4.34932 4.9426 3.50272 8.31336H16.3571ZM31.4818 20.6869C28.6338 20.6869 26.1704 19.1548 24.7467 17.2395V29H21.4752V0.498399H24.6312V3.63926C26.017 1.64791 28.5565 0 31.4818 0C37.1773 0 41.3727 4.6355 41.3727 10.3056C41.3727 16.0523 37.1773 20.6869 31.4818 20.6869ZM31.4818 2.98872C27.8254 2.98872 24.7467 6.28341 24.7467 10.3056C24.7467 14.3658 27.8254 17.699 31.4818 17.699C35.1762 17.699 38.1012 14.3658 38.1012 10.3056C38.1012 6.28341 35.1762 2.98872 31.4818 2.98872ZM42.7967 0.498399H46.0684V20.2274H42.7967V0.498399ZM47.529 10.3937C47.529 4.63662 52.2236 0.00587339 58.1675 0.00587339C64.112 0.00587339 68.8072 4.63662 68.8072 10.3937C68.8072 16.1507 64.0687 20.6973 58.1675 20.6973C52.2672 20.6973 47.529 16.1507 47.529 10.3937ZM59.0656 3.14898C53.6502 2.67771 50.6381 6.78153 50.6381 11.5627C50.6381 16.3428 54.5968 20.2196 59.4778 20.2196C61.3051 20.2229 63.0894 19.6668 64.5885 18.6268L63.3629 15.5214C64.629 14.2086 65.3607 12.3937 65.3607 10.3897C65.3607 6.42717 62.5812 3.47817 59.0656 3.14898Z" fill="#5C6066"/>
<path d="M56.2136 12.3764L65.8648 20.1925H71L61.5978 12.3764" fill="#5C6066"/>
</g>
<defs>
<clipPath id="clip0">
<rect width="71" height="29" fill="white"/>
</clipPath>
</defs>
</svg>
