<svg width="28" height="29" viewBox="0 0 28 29" fill="none" xmlns="http://www.w3.org/2000/svg">
<path d="M26.7755 0H0.333776C0.255423 -1.11049e-06 0.179567 0.0275631 0.119493 0.0778652C0.0594185 0.128167 0.0189561 0.198001 0.00519138 0.275135C-0.00857329 0.35227 0.00523735 0.431788 0.0442046 0.499764C0.0831719 0.56774 0.144812 0.61984 0.218329 0.646941L24.1344 8.47706C24.1618 8.48601 24.1914 8.48507 24.2181 8.47439C24.2449 8.46372 24.267 8.44399 24.2806 8.41866L27.8493 1.79879C27.9495 1.61296 27.9997 1.4043 27.9951 1.19323C27.9905 0.982164 27.9312 0.775905 27.823 0.594625C27.7148 0.413346 27.5613 0.263253 27.3778 0.159025C27.1942 0.0547975 26.9866 2.85107e-06 26.7755 0Z" fill="#5C6066"/>
<path d="M0.00634766 27.6785C0.00634883 27.7504 0.0303421 27.8202 0.0745275 27.877C0.118713 27.9337 0.180565 27.9741 0.250287 27.9917C0.320009 28.0093 0.393615 28.0032 0.459449 27.9742C0.525283 27.9453 0.57958 27.8952 0.613742 27.8319L5.21407 19.3098C5.3186 19.1162 5.47357 18.9544 5.66255 18.8417C5.85153 18.729 6.06749 18.6694 6.28754 18.6694H18.0245C18.2446 18.6694 18.4607 18.6099 18.6497 18.497C18.8388 18.3842 18.9937 18.2223 19.0982 18.0285L22.6052 11.5258C22.6131 11.511 22.6171 11.4944 22.6168 11.4776C22.6164 11.4608 22.6117 11.4444 22.6031 11.4299C22.5945 11.4155 22.5823 11.4036 22.5677 11.3953C22.5531 11.387 22.5365 11.3826 22.5197 11.3826H1.22621C0.90268 11.3826 0.592406 11.5112 0.363639 11.7399C0.134872 11.9687 0.00635036 12.279 0.00634766 12.6025V27.6785Z" fill="#5C6066"/>
</svg>
