<svg width="42" height="21" viewBox="0 0 42 21" fill="none" xmlns="http://www.w3.org/2000/svg">
<path d="M29.2529 6.86383C29.407 6.86383 29.5587 6.85366 29.7074 6.83399L35.5166 15.2837C34.975 15.8904 34.6459 16.6908 34.6459 17.5681C34.6459 19.4634 36.1824 21 38.0778 21C39.9732 21 41.5097 19.4634 41.5097 17.5681C41.5097 15.6727 39.9732 14.1362 38.0778 14.1362C37.6352 14.1362 37.2122 14.2199 36.8237 14.3725L31.2469 6.22545C32.1174 5.60297 32.6848 4.58366 32.6848 3.43191C32.6848 1.5365 31.1483 0 29.2529 0C27.3575 0 25.821 1.5365 25.821 3.43191C25.821 4.62792 26.4328 5.68099 27.3605 6.29533L21.8351 14.3096C21.4955 14.1971 21.1323 14.1362 20.7549 14.1362C20.4269 14.1362 20.1097 14.1822 19.8094 14.2681L14.3127 6.29533C15.2404 5.68099 15.8521 4.62786 15.8521 3.43191C15.8521 1.5365 14.3156 0 12.4202 0C10.5248 0 8.98833 1.5365 8.98833 3.43191C8.98833 4.5788 9.5509 5.59428 10.4151 6.21747L4.76271 14.4037C4.35348 14.2314 3.90381 14.1362 3.43191 14.1362C1.5365 14.1362 0 15.6727 0 17.5681C0 19.4634 1.5365 21 3.43191 21C5.3273 21 6.8638 19.4634 6.8638 17.5681C6.8638 16.7409 6.57119 15.9821 6.08383 15.3895L11.9658 6.83399C12.1145 6.85366 12.2662 6.86383 12.4202 6.86383C12.5232 6.86383 12.6252 6.85929 12.7258 6.85039L18.4162 15.0564C17.7436 15.6829 17.323 16.5764 17.323 17.5681C17.323 19.4634 18.8595 21 20.7549 21C22.6503 21 24.1868 19.4634 24.1868 17.5681C24.1868 16.6253 23.8067 15.7713 23.1914 15.1511L28.9473 6.85039C29.048 6.85929 29.1499 6.86383 29.2529 6.86383Z" fill="#5C6066"/>
</svg>
