<svg fill="none" height="25" viewBox="0 0 154 25" width="154" xmlns="http://www.w3.org/2000/svg"><g fill="#5c6066"><path d="m7.96378 8.70416c0-.32969-.11188-.61378-.33611-.85321-.22423-.23848-.50201-.35867-.83381-.35867-1.04514 0-2.13187 1.11307-3.26019 3.33872-1.04466 2.0114-1.56771 3.61-1.56771 4.7967 0 1.0722.3648 1.6076 1.09486 1.6076 1.0284 0 2.05728-1.039 3.08568-3.1159.69708-1.4176 1.24499-2.9179 1.64277-4.50027.1157-.46176.17451-.76675.17451-.91497zm3.01112 6.23134v.0499c-.0163.0328-.0249.0575-.0249.0736-.348.8409-.8046 1.5578-1.3688 2.1516-.71333.7259-1.46013 1.0879-2.23991 1.0879-.89597 0-1.34348-.5354-1.34348-1.6072 0-.2798.02439-.5525.07411-.8161-1.11111 1.6157-2.32215 2.4233-3.63359 2.4233-.77979 0-1.3932-.305-1.841178-.9145-.397783-.5278-.597152-1.1953-.597152-2.0034 0-1.6484.721937-3.4698 2.16485-5.46504 1.54332-2.11021 3.11103-3.16484 4.70359-3.16484.68034 0 1.25263.29691 1.71735.89026.13243-.49454.39826-.74204.79652-.74204.76309 0 1.14459.13254 1.14459.39572 0 .04988-.1908.64276-.5723 1.78005-1.47734 4.40189-2.21505 6.93259-2.21505 7.59189 0 .3131.1157.4699.34853.4699.46377 0 .99924-.4205 1.605-1.2613.60572-.8409.91652-1.2613.93322-1.2613.2324 0 .3486.1078.3486.3216z"/><path d="m23.6171 5.04422c0-1.38433-.3361-2.37768-1.0073-2.9791-.6727-.6019-1.6892-.89454-3.0489-.87791-1.0619 0-1.593.23088-1.593.69216v7.04703c.6138.09929 1.0614.14822 1.3439.14822 2.8868-.01568 4.3216-1.35962 4.3053-4.0304zm2.937 0c0 3.29738-2.249 4.94536-6.7446 4.94536-.5814 0-1.1948-.0323-1.8416-.09833v4.40145c0 1.5496.2739 2.4399.8213 2.6708.033.0161.3897.1235 1.0705.3216.3978.0988.5881.2309.5723.3952-.0167.1981-.1496.2969-.3987.2969h-6.769c-.2486 0-.3816-.0988-.3978-.2969-.0167-.1643.174-.2964.5723-.3952.6798-.1981 1.0365-.3055 1.07-.3216.5474-.2309.8209-1.1212.8209-2.6708v-10.13827c0-1.54964-.2735-2.43991-.8209-2.67079-.0335-.01615-.3902-.12399-1.07-.32161-.3983-.09881-.589-.230404-.5723-.395725.0162-.1981.1492-.296438.3978-.296438h7.292c1.7255 0 3.1187.354395 4.1806 1.063183 1.211.79097 1.8172 1.96152 1.8172 3.51117z"/><path d="m32.7156 17.6802c-.0168.1981-.1497.2969-.3983.2969h-5.3753c-.2491 0-.382-.0988-.3983-.2969-.0167-.1316.1741-.2475.5723-.3463.514-.115.8711-.2385 1.07-.3706.1989-.1316.307-.4945.3237-1.0883v-1.5824-11.39957c0-.44465-.0416-.73777-.1248-.87791-.0827-.13967-.3318-.20998-.7458-.20998-.6311 0-.9462-.09928-.9462-.29691 0-.21377.1989-.36247.5972-.44513.9624-.198097 1.9081-.469831 2.8375-.815674.1157-.033254.2075-.049881.2735-.049881.1654 0 .2653.095012.2988.28456.033.189549.0497.589555.0497 1.199525v12.61097c0 1.6655.1076 2.5553.3232 2.6707.1162.0661.4733.173 1.0705.3217.3982.1154.5885.247.5723.3952z"/><path d="m40.0568 14.6746v-2.7559c-1.2278.23-2.1486.5088-2.762.8366-.9954.5582-1.4931 1.3288-1.4931 2.3131 0 .5249.153.9473.4599 1.267.307.3202.7258.4798 1.2569.4798.6632 0 1.2527-.2052 1.7671-.6152.514-.41.7712-.9188.7712-1.5254zm4.5539 1.5962c-.4475 1.2698-1.2277 1.904-2.3388 1.904-1.1944 0-1.9249-.6009-2.1898-1.8052-1.2617 1.2043-2.5387 1.8052-3.8329 1.8052-.8295 0-1.485-.238-1.966-.715-.4814-.4769-.7219-1.1268-.7219-1.9491 0-1.4965.8128-2.6148 2.4393-3.3554.9289-.4109 2.281-.732 4.0562-.962.0497-1.56244-.0746-2.57384-.3734-3.03464-.2486-.41093-.8123-.60808-1.692-.59193-.7306.01663-1.2115.24751-1.4439.69264-.1157.41187-.2323.82423-.348 1.2361-.1659.44513-.5226.66793-1.0705.66793-.7301 0-1.0944-.31306-1.0944-.94014 0-.80712.5058-1.43373 1.5175-1.87886.7798-.32969 1.6595-.49453 2.6382-.49453 2.6879.01615 4.0318.93729 4.0318 2.76294v6.09259c0 .8884.2486 1.324.7463 1.3074.3319 0 .6096-.1767.8339-.5316.2242-.3539.3858-.5316.4857-.5316.099 0 .1865.0371.2611.1112.0745.0741.0951.1449.0616.21z"/><path d="m54.3757 16.2796c-1.0786 1.3957-2.4058 2.0931-3.9816 2.0931-1.6428 0-2.9533-.5197-3.9324-1.5611-.9792-1.0403-1.4683-2.3952-1.4683-4.0641 0-1.6684.5436-3.07268 1.6303-4.21282 1.0863-1.1392 2.4675-1.70167 4.1433-1.68504.763 0 1.5098.16485 2.2404.49454.9122.41235 1.3683.95582 1.3683 1.6323 0 .64228-.3318.9639-.9954.9639-.3982 0-.709-.18908-.9332-.56865-.2243-.3791-.4351-.7582-.6345-1.13777-.2983-.39525-.7138-.59335-1.2445-.59335-1.0953 0-1.9244.52922-2.4885 1.58623-.4313.84366-.6469 1.86836-.6469 3.07456 0 1.3221.2649 2.4385.7965 3.3468.6302 1.124 1.551 1.686 2.762 1.686.6966 0 1.3607-.2504 1.9909-.7501.1324-.1169.5388-.5425 1.2196-1.276.0832-.0836.1578-.1254.2237-.1254.1497 0 .2243.1249.2243.3738 0 .2494-.0913.4903-.274.7231z"/><path d="m63.3547 10.5555c-.0999-1.95915-.8878-2.93064-2.3642-2.91449-1.5925.01662-2.5468 1.15392-2.8624 3.41279h3.111c1.4272 0 2.1319-.1662 2.1156-.4983zm2.3643 1.0418c0 .182-.0914.2888-.274.3216h-.5474-6.8685c-.0167.2309-.0248.4043-.0248.5193 0 1.3525.2486 2.4479.7463 3.2893.6301 1.038 1.5758 1.5577 2.8375 1.5577.8291 0 1.5343-.1815 2.1152-.544.2988-.1981.7377-.6019 1.3186-1.2118.066-.0656.1406-.0988.2237-.0988.2157 0 .3242.0988.3242.2969 0 .0655-.0253.1401-.0746.2218-.9462 1.5995-2.4393 2.3905-4.4798 2.3744-1.6265-.0171-2.9365-.5397-3.9319-1.5701-.9955-1.0304-1.4932-2.3454-1.4932-3.9444 0-1.6485.4891-3.04135 1.4678-4.17912 1.0456-1.20285 2.381-1.79667 4.007-1.78005 1.244 0 2.281.37055 3.111 1.11259 1.0117.88979 1.5261 2.10168 1.5429 3.63468z"/><path d="m80.302 1.6076c0 .24703-.087.46556-.2615.65511s-.3858.28456-.6349.28456c-.3978 0-.7133-.28836-.9452-.86556-.2324-.5772-.5393-.865557-.9204-.865557-.8629 0-1.5438.504507-2.0415 1.514017-.1821.34774-.4723 1.21662-.8711 2.60665l-.6712 2.33349h2.4632c.2156 0 .3241.10214.3241.30546 0 .34014-.1831.51022-.5484.51022h-2.4378l-2.489 9.31971c-.5814 2.1696-1.1532 3.7724-1.7169 4.8081-1.0294 1.857-2.315 2.7862-3.8583 2.7862-.5804 0-1.0949-.1648-1.5428-.4945-.448-.3302-.6718-.7668-.6718-1.3107 0-.7416.3361-1.1126 1.0069-1.1126.459 0 .7458.181.8601.5439.0325.1316.0493.486.0493 1.0632 0 .3791.1749.5691.5244.5691.7 0 1.3163-.6261 1.8489-1.8769.2338-.543.5254-1.4732.8744-2.7901l3.0489-11.50541h-2.5885c-.1491 0-.2242-.09359-.2242-.28029 0-.35724.1578-.53539.4738-.53539h2.4885c.6627-2.12684 1.31-3.68456 1.9402-4.67363 1.0786-1.731597 2.4139-2.59667851 4.007-2.59667851.5809 0 1.1197.12399051 1.6174.37054451.5976.296913.8964.709264.8964 1.237054z"/><path d="m82.693 9.52021c0-1.35202-.4565-2.02803-1.3688-2.02803-1.0451 0-2.008 1.09691-2.8863 3.28882-.7473 1.8632-1.1207 3.4209-1.1207 4.6736 0 1.4347.4891 2.1516 1.4688 2.1516 1.0284 0 1.9741-1.1126 2.837-3.3383.7134-1.8793 1.07-3.4617 1.07-4.74769zm1.8164 1.31069c0 1.7145-.5135 3.3382-1.5429 4.8713-1.1613 1.7306-2.5631 2.5966-4.2059 2.5966-1.0781 0-1.9076-.429-2.4885-1.2864-.5312-.7416-.7965-1.6642-.7965-2.7696 0-1.6974.523-3.3292 1.5682-4.89552 1.178-1.74774 2.5798-2.62137 4.2054-2.62137 1.0786 0 1.9081.42898 2.489 1.28551.5144.75914.7712 1.69833.7712 2.81948z"/><path d="m94.5865 8.08578c0 .29691-.087.56864-.2615.81662-.1736.24656-.4026.37055-.6847.37055-.2816 0-.4977-.17292-.6468-.51924-.1497-.34584-.3486-.51924-.5967-.51924-.9132 0-2.4063 3.24753-4.4794 9.74253h-1.9415c.4977-1.6651.9954-3.3383 1.4931-5.0195.7798-2.6541 1.1694-4.14631 1.1694-4.476 0-.27981-.1243-.42043-.3729-.42043-.448 0-.8711.27221-1.2699.81616-.1324.16532-.3977.61805-.7955 1.36007-.0999.1976-.241.2965-.4231.2965-.2491 0-.3734-.0989-.3734-.2965l.0243-.0993c.2157-.82372.6388-1.57336 1.2699-2.24985.7124-.74204 1.4678-1.11259 2.2643-1.11259.8787 0 1.3186.50309 1.3186 1.50832 0 .31306-.0579.70118-.1736 1.16199-.1166.39573-.2242.78333-.3241 1.16243 1.2607-2.55483 2.4474-3.83274 3.5585-3.83274.3653 0 .6641.12779.8965.38338.2318.25558.3485.56437.3485.92684z"/><path d="m117.307 17.6805c-.016.1981-.149.2969-.398.2969h-6.57c-.249 0-.382-.0988-.398-.2969-.017-.1644.174-.2964.572-.3952.68-.1981 1.037-.3055 1.07-.3217.548-.2308.821-1.1206.821-2.6707v-11.67129l-6.421 15.03419c-.148.3463-.265.5192-.348.5192s-.223-.2223-.423-.6674l-5.5246-12.61141c-.2988-.67553-.5976-1.24418-.8964-1.70641l.1496 11.10312c.0167.7914.0502 1.3273.0999 1.6076.1157.5434.3567.8988.722 1.0631.0325.0162.3895.1236 1.0695.3217.398.0988.589.2308.573.3952-.017.1981-.149.2969-.399.2969h-5.3251c-.2486 0-.382-.0988-.3978-.2969-.0172-.1644.1736-.2964.5723-.3952.6799-.1981 1.0365-.3055 1.07-.3217.3643-.1643.6053-.5358.721-1.113.0664-.2798.0999-.7991.0999-1.5577l.1243-12.1663c-.2653-.21331-.6555-.42851-1.1694-.64276-.3648-.09881-.7215-.2057-1.07-.32161-.3988-.09882-.5891-.230408-.5723-.395729.0158-.1981.1491-.296436.3978-.296436h2.9862c1.1278.017101 1.7751.070308 1.9411.160569.165.091212.415.523516.747 1.298336l5.301 12.33923 5.724-13.427114c.099-.247505.323-.371021.671-.371021h4.082c.249 0 .382.098336.398.296436.016.165321-.174.296909-.572.395729-.681.1981-1.037.30546-1.07.32161-.548.23135-.822 1.12162-.822 2.67078v10.13828c0 1.5501.274 2.4399.822 2.6707.033.0162.389.1236 1.07.3217.398.0988.588.2308.572.3952z"/><path d="m126.814 12.6234c0-1.3715-.225-2.495-.673-3.3715-.58-1.13966-1.485-1.70974-2.712-1.70974-1.228 0-2.132.5867-2.712 1.7601-.448.87604-.672 1.99094-.672 3.34634 0 1.3216.224 2.4209.672 3.2964.597 1.124 1.501 1.686 2.712 1.686 1.227 0 2.132-.562 2.712-1.686.448-.8755.673-1.9829.673-3.3216zm2.388-.1487c0 1.685-.547 3.0893-1.642 4.2133-1.095 1.1235-2.489 1.685-4.181 1.685s-3.061-.5287-4.105-1.5862c-1.047-1.0575-1.569-2.437-1.569-4.1382 0-1.6851.548-3.07318 1.643-4.16392 1.094-1.09026 2.489-1.63468 4.181-1.63468 1.608 0 2.957.53682 4.044 1.61045 1.086 1.07364 1.629 2.41185 1.629 4.01425z"/><path d="m150.68 17.6811c-.017.1977-.15.296-.399.296h-5.375c-.249 0-.382-.0983-.398-.296-.016-.1311.174-.2465.572-.3458.514-.115.875-.2418 1.083-.3815.207-.1401.311-1.0242.311-2.6522v-3.2062c0-1.0038-.124-1.7354-.373-2.19573-.332-.6247-.971-.93729-1.917-.93729-.796 0-1.477.24276-2.04.72779-.565.48551-.846 1.08124-.846 1.78863v3.8228c.016.9867.024 1.5292.024 1.628.034.5924.133.9373.299 1.0361.165.0993.523.2138 1.07.3454.398.0988.588.2218.573.37-.017.1977-.15.296-.398.296h-5.376c-.249 0-.382-.0983-.398-.296-.017-.1311.174-.2465.572-.3458.514-.115.874-.2418 1.083-.3815.207-.1401.311-1.0242.311-2.6522v-3.2062c0-1.0038-.124-1.7354-.374-2.19573-.331-.6247-.97-.93729-1.916-.93729-.797 0-1.476.24276-2.04.72779-.564.48551-.846 1.08124-.846 1.78863v3.8228c0 1.6613.107 2.5491.323 2.6641.116.066.472.1729 1.07.3207.398.1149.589.2465.573.3947-.018.1977-.15.296-.398.296h-5.376c-.249 0-.382-.0988-.398-.2969-.017-.1316.182-.2385.596-.3216.515-.0988.872-.2347 1.071-.4076s.299-1.0594.299-2.6585v-4.72299c0-.44513-.041-.73777-.125-.87791-.083-.13967-.332-.20998-.747-.20998-.63 0-.945-.09881-.945-.29644 0-.21425.198-.36294.596-.4456.961-.19763 1.906-.46936 2.833-.81616.15-.03278.249-.0494.299-.0494.149 0 .24.10784.274.32209.015.14822.032.56865.049 1.26081.364-.47031.898-.85179 1.603-1.14395.704-.29216 1.429-.43895 2.174-.43895 1.724 0 2.801.63515 3.232 1.90451.994-1.26936 2.385-1.90451 4.175-1.90451 1.359 0 2.295.37007 2.809 1.11069.563.80617.844 2.07269.844 3.79949v1.2342 1.2827c0 .9373.009 1.4803.025 1.628.034.5929.133.9378.299 1.0366s.523.2138 1.071.3454c.397.0988.588.2218.572.37z"/><path d="m152.905 16.565c-.048-.0185-.115-.028-.203-.028h-.085v.3853h.137c.081 0 .144-.0166.19-.0494.046-.0323.069-.0846.069-.1573 0-.0722-.036-.1225-.108-.1506zm-.637 1.0651v-1.3268c.083 0 .207.0005.371.0009.166.0005.257.0015.276.0024.105.0076.193.0304.263.0684.119.0646.178.1706.178.3164 0 .1116-.031.1919-.094.2413-.062.0499-.14.0794-.231.0894.084.0171.147.0427.189.0764.079.0632.118.1625.118.2979v.1183c0 .0128.001.0261.003.0389.002.0129.005.0262.01.039l.012.0375h-.334c-.011-.0427-.018-.1035-.022-.1838-.003-.0798-.011-.134-.022-.162-.017-.0466-.05-.0789-.098-.0974-.026-.0109-.066-.0181-.119-.0214l-.077-.0047h-.074v.4693zm-.18-1.3591c-.192.1948-.288.4256-.288.6931 0 .2774.098.5126.293.7064.194.1938.428.2907.703.2907.273 0 .507-.0973.701-.2921.194-.1962.291-.4309.291-.705 0-.2665-.097-.4974-.29-.6931-.195-.1991-.429-.2988-.702-.2988-.277 0-.513.0997-.708.2988zm1.551 1.552c-.234.2252-.515.3378-.843.3378-.339 0-.624-.115-.857-.3459-.232-.2304-.348-.514-.348-.8508 0-.3496.126-.6404.376-.8717.235-.2167.512-.325.829-.325.332 0 .616.1169.851.3511.235.2337.353.5159.353.8456 0 .3401-.12.6261-.361.8589z"/></g></svg>